<svg width="100" height="100" viewBox="0 0 100 100" fill="none" xmlns="http://www.w3.org/2000/svg">
<path d="M21.0002 48.9517C26.4288 46.285 27.8812 29.6658 26.8574 23.3801C25.8574 17.1897 34.1907 12.9039 38.5241 19.1182L21.0002 48.9517Z" fill="url(#paint0_linear_50_135)"/>
<path d="M79 48.9517C73.5712 46.285 72.1429 29.642 73.1667 23.3801C74.1667 17.1897 65.8333 12.9039 61.5 19.1182L79 48.9517Z" fill="url(#paint1_linear_50_135)"/>
<path d="M50.0008 84.8091C97.7392 84.8091 79.0008 48.9758 79.0008 48.9758C76.9296 19.4521 61.7867 17.8568 50.0008 17.8568C38.2152 17.8568 23.0723 19.4521 21.0009 48.9521C21.0009 48.9521 2.26281 84.8091 50.0008 84.8091Z" fill="url(#paint2_linear_50_135)"/>
<path d="M79.0004 48.9521C79.0004 48.9521 79.8337 55.1425 79.9766 64.8808C80.2862 84.7854 50.1433 84.7854 50.1433 84.7854C97.6908 84.7379 79.0004 48.9758 79.0004 48.9521Z" fill="url(#paint3_linear_50_135)"/>
<path d="M20.9995 48.9521C20.9995 48.9521 19.8091 55.1425 20.0233 64.8808C20.4281 83.4758 49.8566 84.7854 49.8566 84.7854C2.30906 84.7379 20.9995 48.9758 20.9995 48.9521Z" fill="url(#paint4_linear_50_135)"/>
<path d="M58.9766 84.3096C60.4766 82.3096 60.5241 80.2146 60.6432 80.2146C65.3811 80.2146 67.8574 74.3096 67.8574 68.2384C67.8574 63.1667 60.2857 57.7859 50.0003 59.7384C39.7145 57.7859 32.1431 63.1667 32.1431 68.2384C32.1431 74.3096 34.6192 80.2146 39.3573 80.2146C39.4764 80.2146 39.524 82.3096 41.024 84.3096C43.7145 84.6192 46.6907 84.8096 50.0003 84.8096C53.3099 84.8096 56.2857 84.6429 58.9766 84.3096Z" fill="#EFA25F"/>
<path d="M21.0006 48.9513C21.0006 48.9513 14.9768 60.475 18.453 70.4754C16.2388 62.2609 23.4768 59.0229 38.0483 55.7371C53.1195 52.3563 50.2624 33.1181 34.4292 20.7133C27.7149 24.2372 22.1911 31.9752 21.0006 48.9513Z" fill="url(#paint5_radial_50_135)"/>
<path d="M59.5484 73.5729L50.0009 67.7633L40.4531 73.5729C38.2389 79.93 42.7151 85.7158 50.0009 85.7158C57.2863 85.7158 61.7626 79.93 59.5484 73.5729Z" fill="url(#paint6_linear_50_135)"/>
<path d="M40.6673 75.5491C40.4292 75.5491 40.2149 75.525 40.0006 75.5012C39.7863 76.9537 39.9292 78.3583 40.3815 79.6204C40.4768 79.6204 40.572 79.6441 40.6673 79.6441C44.0005 79.6441 46.7626 77.8108 48.4055 75.0966C49.2151 73.7395 50.7863 73.7395 51.5959 75.0966C53.2388 77.8108 56.0243 79.6441 59.3338 79.6441C59.4293 79.6441 59.5243 79.6441 59.6197 79.6204C60.0722 78.3583 60.1909 76.9537 60.0005 75.5012C59.7863 75.525 59.548 75.5491 59.3338 75.5491C53.9293 75.5491 50.0005 72.2158 50.0005 67.7633C50.0005 72.2396 46.0484 75.5491 40.6673 75.5491Z" fill="url(#paint7_linear_50_135)"/>
<path d="M55.6911 79.095C55.6911 82.2379 53.1436 84.7858 50.0007 84.7858C46.8578 84.7858 44.3103 82.2379 44.3103 79.095C44.3103 69.7617 46.8578 66.0237 50.0007 66.0237C53.1436 66.0237 55.6911 69.7858 55.6911 79.095Z" fill="url(#paint8_linear_50_135)"/>
<path d="M55.6911 79.0954C55.6911 69.7858 53.1436 66.0237 50.0007 66.0237C46.8578 66.0237 44.3103 69.7617 44.3103 79.0954C44.3103 79.3333 44.3341 79.5475 44.3578 79.7621C45.477 79.3333 46.477 78.7858 47.2866 78.1429C48.9057 76.9046 51.1199 76.9046 52.7153 78.1429C53.5486 78.7858 54.5245 79.3333 55.6436 79.7621C55.6674 79.5475 55.6911 79.3096 55.6911 79.0954Z" fill="url(#paint9_linear_50_135)"/>
<path d="M49.1201 72.5229C49.1201 70.0704 49.5251 68.0704 50.001 68.0704C50.4772 68.0704 50.8822 70.0704 50.8822 72.5229C50.8822 79.8088 50.4772 82.7371 50.001 82.7371C49.5251 82.7133 49.1201 79.7846 49.1201 72.5229Z" fill="url(#paint10_linear_50_135)"/>
<path d="M50.0003 59.715C39.7145 57.9054 32.1431 62.8817 32.1431 67.5721C32.1431 73.1913 34.6192 78.6438 39.3574 78.6438C45.5003 78.6438 50.0241 75.3104 50.0241 70.8579C50.0241 75.3104 54.5241 78.6438 60.6907 78.6438C65.4286 78.6438 67.9049 73.1913 67.9049 67.5721C67.8574 62.8817 60.2857 57.9054 50.0003 59.715Z" fill="url(#paint11_linear_50_135)"/>
<path d="M39.3335 78.6417C44.9286 78.6417 49.1432 75.9037 49.8811 72.0704C49.9286 72.0467 50.167 71.9992 50.1191 72.0704C50.8574 75.9037 55.0716 78.6417 60.667 78.6417C65.4049 78.6417 67.8811 73.1896 67.8811 67.5704C67.8811 66.4992 67.5003 65.3562 66.762 64.2133C66.9766 70.2846 64.6907 76.6658 61.0716 76.7846C55.9049 76.9512 52.0241 73.6179 53.9524 71.8325C55.8574 70.0467 59.3099 67.0229 57.4766 64.1417C57.4766 64.1417 55.2145 66.475 53.167 68.6417C53.0953 65.4037 42.5241 64.1417 42.5241 64.1417C40.6907 67.0229 44.1432 70.0467 46.0478 71.8325C47.9524 73.6179 44.0953 76.975 38.9288 76.7846C35.3335 76.6658 33.0478 70.3083 33.2383 64.2608C32.524 65.38 32.1431 66.4992 32.1431 67.5704C32.1431 73.1896 34.6192 78.6417 39.3335 78.6417Z" fill="url(#paint12_linear_50_135)"/>
<path d="M65.9758 49.9767C67.9878 49.9767 69.6187 47.9404 69.6187 45.4292C69.6187 42.9175 67.9878 40.8813 65.9758 40.8813C63.9641 40.8813 62.3333 42.9175 62.3333 45.4292C62.3333 47.9404 63.9641 49.9767 65.9758 49.9767Z" fill="url(#paint13_radial_50_135)"/>
<path d="M61.8332 70.7638C62.2145 70.7638 62.5237 70.4546 62.5237 70.0734C62.5237 69.6917 62.2145 69.3829 61.8332 69.3829C61.452 69.3829 61.1428 69.6917 61.1428 70.0734C61.1428 70.4546 61.452 70.7638 61.8332 70.7638Z" fill="url(#paint14_linear_50_135)"/>
<path d="M63.6196 73.7871C64.0013 73.7871 64.3104 73.4779 64.3104 73.0967C64.3104 72.715 64.0013 72.4058 63.6196 72.4058C63.2384 72.4058 62.9292 72.715 62.9292 73.0967C62.9292 73.4779 63.2384 73.7871 63.6196 73.7871Z" fill="url(#paint15_linear_50_135)"/>
<path d="M65.2383 69.1908C65.6195 69.1908 65.9287 68.8817 65.9287 68.5004C65.9287 68.1192 65.6195 67.81 65.2383 67.81C64.8566 67.81 64.5479 68.1192 64.5479 68.5004C64.5479 68.8817 64.8566 69.1908 65.2383 69.1908Z" fill="url(#paint16_linear_50_135)"/>
<path d="M34.0242 49.9767C36.0361 49.9767 37.6671 47.9404 37.6671 45.4292C37.6671 42.9175 36.0361 40.8813 34.0242 40.8813C32.0123 40.8813 30.3813 42.9175 30.3813 45.4292C30.3813 47.9404 32.0123 49.9767 34.0242 49.9767Z" fill="url(#paint17_radial_50_135)"/>
<path d="M65.2629 45.2379C65.907 45.2379 66.4295 44.5984 66.4295 43.8092C66.4295 43.0204 65.907 42.3809 65.2629 42.3809C64.6183 42.3809 64.0962 43.0204 64.0962 43.8092C64.0962 44.5984 64.6183 45.2379 65.2629 45.2379Z" fill="url(#paint18_linear_50_135)"/>
<path d="M33.3097 45.2379C33.9541 45.2379 34.4764 44.5984 34.4764 43.8092C34.4764 43.0204 33.9541 42.3809 33.3097 42.3809C32.6654 42.3809 32.1431 43.0204 32.1431 43.8092C32.1431 44.5984 32.6654 45.2379 33.3097 45.2379Z" fill="url(#paint19_linear_50_135)"/>
<path d="M38.1671 70.9996C38.5484 70.9996 38.8575 70.6904 38.8575 70.3092C38.8575 69.9279 38.5484 69.6188 38.1671 69.6188C37.7857 69.6188 37.4766 69.9279 37.4766 70.3092C37.4766 70.6904 37.7857 70.9996 38.1671 70.9996Z" fill="url(#paint20_linear_50_135)"/>
<path d="M36.3819 74.0004C36.7632 74.0004 37.0723 73.6912 37.0723 73.31C37.0723 72.9287 36.7632 72.6196 36.3819 72.6196C36.0005 72.6196 35.6914 72.9287 35.6914 73.31C35.6914 73.6912 36.0005 74.0004 36.3819 74.0004Z" fill="url(#paint21_linear_50_135)"/>
<path d="M34.7622 69.4046C35.1436 69.4046 35.4527 69.0954 35.4527 68.7142C35.4527 68.3329 35.1436 68.0237 34.7622 68.0237C34.3809 68.0237 34.0718 68.3329 34.0718 68.7142C34.0718 69.0954 34.3809 69.4046 34.7622 69.4046Z" fill="url(#paint22_linear_50_135)"/>
<path d="M57.2389 62.8821C55.8339 60.7871 52.9055 59.7154 50.0005 59.6679C47.0959 59.7154 44.1672 60.7871 42.7626 62.8821C36.8102 71.7154 45.0722 72.7633 48.7626 72.7154C49.5959 72.6917 50.4293 72.6917 51.2626 72.7154C54.9293 72.7871 63.1909 71.7154 57.2389 62.8821Z" fill="url(#paint23_linear_50_135)"/>
<path d="M44.7858 63.6188C46.8096 65.0238 53.1904 65.0238 55.2383 63.6188C56.3096 62.8808 52.5237 61.2142 50.0237 61.2142C47.4762 61.2142 43.7142 62.8808 44.7858 63.6188Z" fill="url(#paint24_linear_50_135)"/>
<path d="M28.977 24.9756C24.8818 29.4994 21.858 36.9042 21.0009 48.9517C21.0009 48.9517 20.7866 49.3804 20.4294 50.1421C28.9532 54.9996 30.2152 30.7613 28.977 24.9756Z" fill="url(#paint25_linear_50_135)"/>
<path d="M26.4057 28.4514C27.0247 27.4276 27.6914 26.499 28.3818 25.6657C28.12 24.1895 28.1438 22.8323 28.5485 21.9038C30.3104 17.999 35.4533 15.7847 35.0247 20.4276C36.3818 19.7847 37.7628 19.2847 39.1676 18.9276C34.6438 12.0942 24.739 18.0466 25.7152 24.0942C25.8581 24.999 26.2866 26.9514 26.4057 28.4514Z" fill="url(#paint26_linear_50_135)"/>
<path d="M38.5243 19.119C38.9767 19 39.4291 18.8809 39.8815 18.7619C39.8815 18.7619 33.8338 8.19045 15.5719 19.5714C3.35763 27.1905 11.9529 53.4283 21.0005 48.9762C26.4291 46.2858 27.1195 30.0952 26.8576 23.3809C26.5957 17.119 34.191 12.9047 38.5243 19.119Z" fill="url(#paint27_linear_50_135)"/>
<path opacity="0.5" d="M38.5249 19.1194C38.8583 19.0241 39.1678 18.9527 39.5012 18.8575C37.2154 15.9765 34.8583 14.8098 31.0249 15.548C27.763 16.1908 25.4773 20.3813 25.6202 24.048C25.763 27.5241 25.6202 32.9527 24.8583 37.8098C23.9535 43.3338 22.4059 46.905 20.4773 47.8575C17.1916 49.4767 13.6202 45.6671 11.5487 41.9287C11.2869 41.4527 11.0249 40.9527 10.7869 40.4289C12.7869 46.5717 16.8345 51.0242 21.0012 48.9767C26.4297 46.2858 27.1202 30.0956 26.8583 23.3813C26.5964 17.1194 34.1916 12.9051 38.5249 19.1194Z" fill="url(#paint28_linear_50_135)"/>
<path d="M71.0238 24.9756C75.1192 29.4994 78.143 36.9042 79 48.9754C79 48.9754 79.2146 49.4042 79.5717 50.1663C71.048 54.9996 69.7859 30.7613 71.0238 24.9756Z" fill="url(#paint29_linear_50_135)"/>
<path d="M73.5958 28.4514C72.9767 27.4276 72.31 26.499 71.6196 25.6657C71.8812 24.1895 71.8575 22.8323 71.4529 21.9038C69.6908 17.999 64.5479 15.7847 64.9767 20.4276C63.6196 19.7847 62.2383 19.2847 60.8337 18.9276C65.3575 12.0942 75.2625 18.0466 74.2862 24.0942C74.1433 24.999 73.7146 26.9514 73.5958 28.4514Z" fill="url(#paint30_linear_50_135)"/>
<path d="M61.4767 19.119C61.0246 19 60.5721 18.8809 60.1196 18.7619C60.1196 18.7619 66.1671 8.19045 84.4292 19.5714C96.6434 27.1905 88.0484 53.4283 79.0005 48.9762C73.5721 46.3096 72.8817 30.0952 73.1671 23.4047C73.4055 17.119 65.81 12.9047 61.4767 19.119Z" fill="url(#paint31_linear_50_135)"/>
<path opacity="0.5" d="M61.4762 19.1194C61.1429 19.0241 60.8333 18.9527 60.5 18.8575C62.7858 15.9765 65.1429 14.8098 68.9762 15.548C72.2383 16.1908 74.5237 20.3813 74.3808 24.048C74.2383 27.5241 74.3808 32.9527 75.1429 37.8098C76.0479 43.3338 77.5954 46.905 79.5237 47.8575C82.8096 49.4767 86.3812 45.6671 88.4525 41.9287C88.7146 41.4527 88.9763 40.9527 89.2146 40.4289C87.2146 46.5717 83.1667 51.0242 79 48.9767C73.5717 46.31 72.8808 30.0956 73.1667 23.4051C73.405 17.1194 65.8096 12.9051 61.4762 19.1194Z" fill="url(#paint32_linear_50_135)"/>
<path opacity="0.5" d="M18.4767 70.4763C17.6196 67.3096 18.191 64.8808 20.0243 62.9046C20.0005 54.3092 21.0243 48.9758 21.0243 48.9521C21.0005 48.9758 14.9767 60.5 18.4767 70.4763Z" fill="url(#paint33_linear_50_135)"/>
<defs>
<linearGradient id="paint0_linear_50_135" x1="25.0077" y1="15.5044" x2="33.0282" y2="46.7638" gradientUnits="userSpaceOnUse">
<stop stop-color="#512D00"/>
<stop offset="1" stop-color="#A3541E"/>
</linearGradient>
<linearGradient id="paint1_linear_50_135" x1="74.9925" y1="15.5044" x2="66.9721" y2="46.7638" gradientUnits="userSpaceOnUse">
<stop stop-color="#512D00"/>
<stop offset="1" stop-color="#A3541E"/>
</linearGradient>
<linearGradient id="paint2_linear_50_135" x1="50.0008" y1="93.9879" x2="50.0008" y2="5.98277" gradientUnits="userSpaceOnUse">
<stop stop-color="#FBB87A"/>
<stop offset="0.0925465" stop-color="#FBBA7E"/>
<stop offset="0.1895" stop-color="#FCC18B"/>
<stop offset="0.2884" stop-color="#FCCCA0"/>
<stop offset="0.3888" stop-color="#FDDCBD"/>
<stop offset="0.4893" stop-color="#FEF0E2"/>
<stop offset="0.5546" stop-color="white"/>
<stop offset="0.6639" stop-color="#FEF0E1"/>
<stop offset="0.802" stop-color="#FDDFC2"/>
<stop offset="0.9189" stop-color="#FCD6AF"/>
<stop offset="1" stop-color="#FCD2A8"/>
</linearGradient>
<linearGradient id="paint3_linear_50_135" x1="66.3812" y1="75.485" x2="66.3812" y2="-6.60161" gradientUnits="userSpaceOnUse">
<stop stop-color="#FBB87A"/>
<stop offset="0.0948012" stop-color="#FCC695"/>
<stop offset="0.2764" stop-color="#FDDFC2"/>
<stop offset="0.4381" stop-color="#FEF0E3"/>
<stop offset="0.5722" stop-color="#FFFBF8"/>
<stop offset="0.6624" stop-color="white"/>
<stop offset="0.7499" stop-color="#FFFDFC"/>
<stop offset="0.8183" stop-color="#FFF8F2"/>
<stop offset="0.8803" stop-color="#FEF0E1"/>
<stop offset="0.9383" stop-color="#FDE4CA"/>
<stop offset="0.9933" stop-color="#FCD4AC"/>
<stop offset="1" stop-color="#FCD2A8"/>
</linearGradient>
<linearGradient id="paint4_linear_50_135" x1="33.6188" y1="75.485" x2="33.6188" y2="-6.60161" gradientUnits="userSpaceOnUse">
<stop stop-color="#FBB87A"/>
<stop offset="0.0948012" stop-color="#FCC695"/>
<stop offset="0.2764" stop-color="#FDDFC2"/>
<stop offset="0.4381" stop-color="#FEF0E3"/>
<stop offset="0.5722" stop-color="#FFFBF8"/>
<stop offset="0.6624" stop-color="white"/>
<stop offset="0.7499" stop-color="#FFFDFC"/>
<stop offset="0.8183" stop-color="#FFF8F2"/>
<stop offset="0.8803" stop-color="#FEF0E1"/>
<stop offset="0.9383" stop-color="#FDE4CA"/>
<stop offset="0.9933" stop-color="#FCD4AC"/>
<stop offset="1" stop-color="#FCD2A8"/>
</linearGradient>
<radialGradient id="paint5_radial_50_135" cx="0" cy="0" r="1" gradientUnits="userSpaceOnUse" gradientTransform="translate(33.4392 44.3696) rotate(94.4983) scale(27.0928 19.3574)">
<stop stop-color="#E89043"/>
<stop offset="0.0352166" stop-color="#E38C40"/>
<stop offset="0.2763" stop-color="#C77331"/>
<stop offset="0.5183" stop-color="#B36227"/>
<stop offset="0.7597" stop-color="#A75720"/>
<stop offset="1" stop-color="#A3541E"/>
</radialGradient>
<linearGradient id="paint6_linear_50_135" x1="50.0009" y1="71.2462" x2="50.0009" y2="84.9833" gradientUnits="userSpaceOnUse">
<stop stop-color="#FBE07A"/>
<stop offset="1" stop-color="white"/>
</linearGradient>
<linearGradient id="paint7_linear_50_135" x1="50.0005" y1="75.4862" x2="50.0005" y2="86.5566" gradientUnits="userSpaceOnUse">
<stop stop-color="#FCD2A8"/>
<stop offset="1" stop-color="white"/>
</linearGradient>
<linearGradient id="paint8_linear_50_135" x1="49.9578" y1="77.3521" x2="52.5049" y2="91.2754" gradientUnits="userSpaceOnUse">
<stop stop-color="#FF6688"/>
<stop offset="1" stop-color="#FB9C9C"/>
</linearGradient>
<linearGradient id="paint9_linear_50_135" x1="50.7628" y1="81.2229" x2="47.9891" y2="67.4117" gradientUnits="userSpaceOnUse">
<stop stop-color="#FF6688"/>
<stop offset="1" stop-color="#B30B0B"/>
</linearGradient>
<linearGradient id="paint10_linear_50_135" x1="51.2143" y1="81.13" x2="48.441" y2="67.32" gradientUnits="userSpaceOnUse">
<stop stop-color="#FF6688"/>
<stop offset="1" stop-color="#B30B0B"/>
</linearGradient>
<linearGradient id="paint11_linear_50_135" x1="50.0003" y1="98.7621" x2="50.0003" y2="67.2863" gradientUnits="userSpaceOnUse">
<stop stop-color="#FBE07A"/>
<stop offset="1" stop-color="white"/>
</linearGradient>
<linearGradient id="paint12_linear_50_135" x1="50.0003" y1="90.2867" x2="50.0003" y2="64.0717" gradientUnits="userSpaceOnUse">
<stop stop-color="#FCD2A8"/>
<stop offset="1" stop-color="white"/>
</linearGradient>
<radialGradient id="paint13_radial_50_135" cx="0" cy="0" r="1" gradientUnits="userSpaceOnUse" gradientTransform="translate(2407.23 41.0783) rotate(90) scale(5.54783 4.5015)">
<stop stop-color="#512D00"/>
<stop offset="1" stop-color="#3C2200"/>
</radialGradient>
<linearGradient id="paint14_linear_50_135" x1="61.5491" y1="40.6652" x2="61.8574" y2="72.7367" gradientUnits="userSpaceOnUse">
<stop stop-color="#FBB87A"/>
<stop offset="0.5" stop-color="white"/>
<stop offset="1" stop-color="#FCD2A8"/>
</linearGradient>
<linearGradient id="paint15_linear_50_135" x1="63.3013" y1="40.6469" x2="63.6096" y2="72.7196" gradientUnits="userSpaceOnUse">
<stop stop-color="#FBB87A"/>
<stop offset="0.5" stop-color="white"/>
<stop offset="1" stop-color="#FCD2A8"/>
</linearGradient>
<linearGradient id="paint16_linear_50_135" x1="64.9599" y1="40.6308" x2="65.2683" y2="72.7025" gradientUnits="userSpaceOnUse">
<stop stop-color="#FBB87A"/>
<stop offset="0.5" stop-color="white"/>
<stop offset="1" stop-color="#FCD2A8"/>
</linearGradient>
<radialGradient id="paint17_radial_50_135" cx="0" cy="0" r="1" gradientUnits="userSpaceOnUse" gradientTransform="translate(36.4104 41.0783) rotate(90) scale(5.54783 4.5015)">
<stop stop-color="#512D00"/>
<stop offset="1" stop-color="#3C2200"/>
</radialGradient>
<linearGradient id="paint18_linear_50_135" x1="64.3416" y1="41.8225" x2="66.2945" y2="46.0679" gradientUnits="userSpaceOnUse">
<stop stop-color="#A3541E"/>
<stop offset="1" stop-color="#512D00"/>
</linearGradient>
<linearGradient id="paint19_linear_50_135" x1="32.3869" y1="41.8225" x2="34.3398" y2="46.0679" gradientUnits="userSpaceOnUse">
<stop stop-color="#A3541E"/>
<stop offset="1" stop-color="#512D00"/>
</linearGradient>
<linearGradient id="paint20_linear_50_135" x1="38.4532" y1="40.6945" x2="38.1448" y2="72.7663" gradientUnits="userSpaceOnUse">
<stop stop-color="#FBB87A"/>
<stop offset="0.5" stop-color="white"/>
<stop offset="1" stop-color="#FCD2A8"/>
</linearGradient>
<linearGradient id="paint21_linear_50_135" x1="36.7022" y1="40.6775" x2="36.3938" y2="72.7504" gradientUnits="userSpaceOnUse">
<stop stop-color="#FBB87A"/>
<stop offset="0.5" stop-color="white"/>
<stop offset="1" stop-color="#FCD2A8"/>
</linearGradient>
<linearGradient id="paint22_linear_50_135" x1="35.0422" y1="40.6606" x2="34.7338" y2="72.7337" gradientUnits="userSpaceOnUse">
<stop stop-color="#FBB87A"/>
<stop offset="0.5" stop-color="white"/>
<stop offset="1" stop-color="#FCD2A8"/>
</linearGradient>
<linearGradient id="paint23_linear_50_135" x1="49.9909" y1="68.0775" x2="47.1105" y2="56.3612" gradientUnits="userSpaceOnUse">
<stop stop-color="#3C2200"/>
<stop offset="1" stop-color="#512D00"/>
</linearGradient>
<linearGradient id="paint24_linear_50_135" x1="47.0542" y1="55.2129" x2="50.1279" y2="63.6654" gradientUnits="userSpaceOnUse">
<stop stop-color="#643800"/>
<stop offset="1" stop-color="#512D00"/>
</linearGradient>
<linearGradient id="paint25_linear_50_135" x1="19.3642" y1="5.37613" x2="26.5609" y2="48.6592" gradientUnits="userSpaceOnUse">
<stop stop-color="#643800"/>
<stop offset="1" stop-color="#A3541E"/>
</linearGradient>
<linearGradient id="paint26_linear_50_135" x1="31.5644" y1="19.7511" x2="29.0949" y2="11.7891" gradientUnits="userSpaceOnUse">
<stop stop-color="#512D00"/>
<stop offset="1" stop-color="#3C2200"/>
</linearGradient>
<linearGradient id="paint27_linear_50_135" x1="32.3254" y1="37.3541" x2="12.5047" y2="19.7927" gradientUnits="userSpaceOnUse">
<stop stop-color="#E89043"/>
<stop offset="1" stop-color="#A3541E"/>
</linearGradient>
<linearGradient id="paint28_linear_50_135" x1="14.5842" y1="1.60476" x2="21.4574" y2="19.8814" gradientUnits="userSpaceOnUse">
<stop stop-color="#FBB87A"/>
<stop offset="1" stop-color="#A3541E"/>
</linearGradient>
<linearGradient id="paint29_linear_50_135" x1="51.7809" y1="61.0675" x2="119.687" y2="-6.82529" gradientUnits="userSpaceOnUse">
<stop stop-color="#FBB87A"/>
<stop offset="0.6624" stop-color="white"/>
<stop offset="0.7499" stop-color="#FFFDFC"/>
<stop offset="0.8183" stop-color="#FFF8F2"/>
<stop offset="0.8803" stop-color="#FEF0E1"/>
<stop offset="0.9383" stop-color="#FDE4CA"/>
<stop offset="0.9933" stop-color="#FCD4AC"/>
<stop offset="1" stop-color="#FCD2A8"/>
</linearGradient>
<linearGradient id="paint30_linear_50_135" x1="68.4371" y1="19.7511" x2="70.9062" y2="11.7891" gradientUnits="userSpaceOnUse">
<stop stop-color="#512D00"/>
<stop offset="1" stop-color="#3C2200"/>
</linearGradient>
<linearGradient id="paint31_linear_50_135" x1="67.6759" y1="37.3541" x2="87.4963" y2="19.7928" gradientUnits="userSpaceOnUse">
<stop stop-color="#E89043"/>
<stop offset="1" stop-color="#A3541E"/>
</linearGradient>
<linearGradient id="paint32_linear_50_135" x1="85.4171" y1="1.60476" x2="78.5438" y2="19.8814" gradientUnits="userSpaceOnUse">
<stop stop-color="#FBB87A"/>
<stop offset="1" stop-color="#A3541E"/>
</linearGradient>
<linearGradient id="paint33_linear_50_135" x1="1.20514" y1="41.7558" x2="14.5748" y2="54.7142" gradientUnits="userSpaceOnUse">
<stop stop-color="#643800"/>
<stop offset="1" stop-color="#A3541E"/>
</linearGradient>
</defs>
</svg>
